<svg xmlns="http://www.w3.org/2000/svg" width="24.001" height="24.001" viewBox="0 0 24.001 24.001">
  <path id="排除_1" data-name="排除 1" d="M12028,895a12,12,0,1,1,8.487-3.516A11.92,11.92,0,0,1,12028,895Zm-4.348-6.225a.573.573,0,0,0-.619.367,1.214,1.214,0,0,0,.259,1.047l.821.616a2.412,2.412,0,0,0,2.907,0l.822-.616a.77.77,0,0,1,.924,0l.819.616a2.409,2.409,0,0,0,1.442.487h.014a2.409,2.409,0,0,0,1.451-.486l.821-.616a.95.95,0,0,0,.322-1.037.78.78,0,0,0-.733-.474.962.962,0,0,0-.58.206l-.821.613a.762.762,0,0,1-.925,0l-.819-.613a2.415,2.415,0,0,0-2.909,0l-.819.613a.762.762,0,0,1-.925,0l-.821-.613A2.273,2.273,0,0,0,12023.651,888.777Zm-.821-1.74a.762.762,0,0,1,.461.156l.821.613a2.412,2.412,0,0,0,2.907,0l.822-.613a.76.76,0,0,1,.924,0l.819.613a2.409,2.409,0,0,0,1.442.487h.014a2.409,2.409,0,0,0,1.451-.486l.821-.613a.758.758,0,0,1,.922,0l.822.613a2.009,2.009,0,0,0,.489.07.643.643,0,0,0,.689-.425,1.04,1.04,0,0,0-.185-.95l-.822-.616a2.412,2.412,0,0,0-2.907,0l-.821.616a.771.771,0,0,1-.925,0l-.819-.616a2.415,2.415,0,0,0-2.909,0l-.819.616a.771.771,0,0,1-.925,0l-.821-.616a2.412,2.412,0,0,0-2.907,0l-1.063.8a.821.821,0,0,0,.5,1.476.812.812,0,0,0,.5-.167l1.061-.8A.765.765,0,0,1,12022.83,887.037Zm9.954-8.9h0V884.5a2.726,2.726,0,0,1,1.076-.185c.089,0,.176,0,.256.009v-7.506h-2.146v-1.668h-7.565v1.668h-2.143v7.542a2.776,2.776,0,0,1,.489-.039,2.938,2.938,0,0,1,.861.114v-6.273Zm-7.07,2.182v3.822l.016.009.118-.088a3.019,3.019,0,0,1,1.32-.447v-3.294l-1.454,0Zm5.128.073-1.456,0v3.291a3.052,3.052,0,0,1,1.456.378v-3.671Z" transform="translate(-12016 -871.001)"/>
</svg>
