<svg xmlns="http://www.w3.org/2000/svg" width="28" height="28" viewBox="0 0 28 28">
  <g id="组_1854" data-name="组 1854" transform="translate(-682 -463)">
    <circle id="椭圆_106" data-name="椭圆 106" cx="14" cy="14" r="14" transform="translate(682 463)" fill="#fff"/>
    <circle id="椭圆_391" data-name="椭圆 391" cx="12" cy="12" r="12" transform="translate(684 465)" fill="#ba69ff"/>
    <g id="组_1710" data-name="组 1710" transform="translate(685.333 466.333)">
      <rect id="矩形_977" data-name="矩形 977" width="21.333" height="21.333" transform="translate(0 0)" fill="#fff" opacity="0.003"/>
      <g id="泵站" transform="translate(3.372 1.821)">
        <path id="路径_1818" data-name="路径 1818" d="M12.612,1.669V0H5.047V1.669H2.9V9.211a2.237,2.237,0,0,1,1.129.079V2.8h9.595V9.382a2.231,2.231,0,0,1,1.129-.209v-7.5H12.612ZM10.254,8.531a2.218,2.218,0,0,1,1.229.376V5.239H10.254ZM6.37,9l.117-.088a2.211,2.211,0,0,1,1.095-.45V5.166H6.353V8.989Z" transform="translate(-1.345 1)" fill="#fff" stroke="#fff" stroke-width="0.5"/>
        <path id="路径_1819" data-name="路径 1819" d="M11.168,720.78a2.406,2.406,0,0,1-1.455-.487l-.821-.615a.769.769,0,0,0-.925,0l-.821.615a2.416,2.416,0,0,1-2.908,0l-.821-.615a.769.769,0,0,0-.925,0l-1.061.8a.821.821,0,1,1-.993-1.308l1.061-.8a2.416,2.416,0,0,1,2.908,0l.821.616a.769.769,0,0,0,.925,0l.821-.616a2.416,2.416,0,0,1,2.908,0l.821.616a.769.769,0,0,0,.925,0l.821-.616a2.416,2.416,0,0,1,2.908,0l.821.616c.274.206.605,1.715-.993,1.308l-.821-.615a.769.769,0,0,0-.925,0l-.821.615a2.406,2.406,0,0,1-1.45.487Z" transform="translate(-0.831 -706.639)" fill="#fff"/>
        <path id="路径_1824" data-name="路径 1824" d="M11.168,720.78a2.406,2.406,0,0,1-1.455-.487l-.821-.615a.769.769,0,0,0-.925,0l-.821.615a2.416,2.416,0,0,1-2.908,0l-.821-.615c-.274-.206-.823-1.848.99-1.308l.821.616a.769.769,0,0,0,.925,0l.821-.616a2.416,2.416,0,0,1,2.908,0l.821.616a.769.769,0,0,0,.925,0l.821-.616c.861-.649,1.955.363.99,1.308l-.821.615a2.406,2.406,0,0,1-1.45.487Z" transform="translate(-0.831 -703.639)" fill="#fff"/>
      </g>
    </g>
  </g>
</svg>
