<?xml version="1.0" standalone="no"?><!DOCTYPE svg PUBLIC "-//W3C//DTD SVG 1.1//EN" "http://www.w3.org/Graphics/SVG/1.1/DTD/svg11.dtd"><svg t="1575545546565" class="icon" viewBox="0 0 1102 1024" version="1.1" xmlns="http://www.w3.org/2000/svg" p-id="1977" xmlns:xlink="http://www.w3.org/1999/xlink" width="215.234375" height="16"><defs><style type="text/css"></style></defs><path d="M831.803077 1023.369846c-15.438769 0-32.846769-4.253538-48.994462-12.051692l-230.793846-111.300923-232.211692 111.064615c-14.729846 7.640615-31.507692 11.579077-48.679385 11.579077a106.180923 106.180923 0 0 1-61.991384-19.534769c-32.531692-23.552-49.152-64.275692-41.511385-101.376l47.497846-237.568-181.956923-163.603692a105.393231 105.393231 0 0 1-28.356923-104.52677l0.393846-1.260307a104.526769 104.526769 0 0 1 85.858462-70.104616l252.849231-44.425846L457.491692 57.974154a107.598769 107.598769 0 0 1 94.523077-57.816616c40.96 0 78.926769 23.473231 94.916923 58.44677l113.112616 221.656615 252.928 42.614154c40.172308 5.592615 73.176615 33.398154 84.283077 70.971077 12.524308 37.021538 2.363077 77.587692-26.308923 104.920615l-0.630154 0.630154-181.563077 164.785231 45.922461 238.040615c7.404308 38.045538-8.349538 76.484923-40.96 100.509539-17.565538 13.548308-39.384615 20.873846-61.833846 20.637538z" p-id="1978" fill="#A3A0FB"></path></svg>