<?xml version="1.0" standalone="no"?><!DOCTYPE svg PUBLIC "-//W3C//DTD SVG 1.1//EN" "http://www.w3.org/Graphics/SVG/1.1/DTD/svg11.dtd"><svg t="1575545651896" class="icon" viewBox="0 0 1054 1024" version="1.1" xmlns="http://www.w3.org/2000/svg" p-id="2109" xmlns:xlink="http://www.w3.org/1999/xlink" width="205.859375" height="16"><defs><style type="text/css"></style></defs><path d="M799.178507 1012.384478c-14.611104 0-31.132657-4.202985-46.385671-11.829493l-217.791045-108.910806-219.212418 108.666269a98.166448 98.166448 0 0 1-46.003582 11.309851c-21.228896 0-42.060418-6.877612-58.459701-19.19618-30.750567-23.001791-46.385672-62.784955-39.125971-99.129313L217.026866 660.755104 45.239403 500.506746c-26.440597-26.440597-36.986269-66.590567-26.685134-102.293015l0.382089-1.146268c12.456119-37.490627 43.466507-63.671403 81.079403-68.745553l238.637851-43.328955 107.13791-217.684059c17.148179-34.43391 52.224-56.549254 89.194985-56.549254 38.636896 0 74.476896 23.001791 89.592359 57.17588l106.878089 216.919881 238.775403 41.678328c37.597612 5.349254 69.509731 33.043104 79.535761 69.525015 11.829493 36.22209 2.292537 75.470328-24.912238 102.675105l-0.611344 0.626627-171.313671 161.394626 43.206686 232.921792c6.984597 37.230806-7.871045 74.858985-38.621612 98.365134-15.894925 13.082746-36.604179 20.327164-58.337433 20.327164zM535.12406 828.217313l243.085373 121.611463c7.122149 3.561075 15.375284 5.853612 20.969074 5.853612 8.650507 0 16.781373-2.674627 22.619702-7.626507l1.146269-0.886448c13.846925-10.423403 20.586985-26.822687 17.530268-42.946866l-48.907462-263.443104 193.520716-182.22615c11.829493-12.07403 15.894925-29.344478 10.683224-45.10185l-0.504358-1.650627a40.012418 40.012418 0 0 0-33.043105-28.855403l-1.146268-0.122269-267.875344-47.012298-120.465194-244.751284c-5.853612-13.724657-21.733254-23.643701-37.750448-23.643701-15.74209 0-30.872836 9.919045-38.499343 25.034507l-119.701015 243.100657-269.14388 48.922746c-16.399284 2.032716-29.115224 12.960478-34.953553 29.864119-4.187701 15.497552 0.764179 34.051821 12.196299 45.743762l193.673552 180.453253L227.725373 904.100299c-3.056716 15.253015 4.187701 32.783284 17.530269 42.824597 6.724776 5.089433 15.375284 7.748776 24.40788 7.748776 6.984597 0 13.724657-1.650627 19.562985-4.69206l0.886448-0.38209 244.995821-121.351641z" p-id="2110" fill="#A3A0FB"></path></svg>