<svg xmlns="http://www.w3.org/2000/svg" width="20" height="20" viewBox="0 0 20 20">
  <g id="ic-AlarmLevel03" transform="translate(-117)">
    <circle id="椭圆_12" data-name="椭圆 12" cx="10" cy="10" r="10" transform="translate(117)" fill="red"/>
    <path id="路径_1882" data-name="路径 1882" d="M-.72-4.86V-4a4.94,4.94,0,0,1,.612-.036,2.407,2.407,0,0,1,.714.1,1.547,1.547,0,0,1,.57.312A1.556,1.556,0,0,1,1.56-3.1a1.631,1.631,0,0,1,.144.7,1.547,1.547,0,0,1-.15.69,1.551,1.551,0,0,1-.4.516A1.823,1.823,0,0,1,.564-.87a2.189,2.189,0,0,1-.708.114,1.674,1.674,0,0,1-1.332-.522,2.073,2.073,0,0,1-.48-1.35h-1.02A3.105,3.105,0,0,0-2.79-1.452a2.337,2.337,0,0,0,.57.87,2.416,2.416,0,0,0,.9.534A3.628,3.628,0,0,0-.144.132,3.886,3.886,0,0,0,.99-.03a2.678,2.678,0,0,0,.93-.486,2.344,2.344,0,0,0,.63-.81,2.557,2.557,0,0,0,.234-1.122A2.336,2.336,0,0,0,2.406-3.78a1.773,1.773,0,0,0-1.158-.732v-.024a2.149,2.149,0,0,0,.84-.672,1.645,1.645,0,0,0,.336-1.02,2.43,2.43,0,0,0-.2-1.02,1.893,1.893,0,0,0-.546-.708A2.375,2.375,0,0,0,.858-8.37,3.657,3.657,0,0,0-.168-8.508a2.88,2.88,0,0,0-1.122.2,2.235,2.235,0,0,0-.81.564,2.487,2.487,0,0,0-.5.864A3.873,3.873,0,0,0-2.8-5.76h1.02a2.565,2.565,0,0,1,.1-.708,1.693,1.693,0,0,1,.294-.588,1.431,1.431,0,0,1,.5-.4,1.6,1.6,0,0,1,.714-.15,1.686,1.686,0,0,1,1.08.342A1.229,1.229,0,0,1,1.344-6.24a1.324,1.324,0,0,1-.132.6A1.269,1.269,0,0,1,.858-5.2a1.574,1.574,0,0,1-.516.264,2.1,2.1,0,0,1-.618.09H-.612A.556.556,0,0,1-.72-4.86Z" transform="translate(127 14)" fill="#fff"/>
  </g>
</svg>
