<svg xmlns="http://www.w3.org/2000/svg" width="20" height="20" viewBox="0 0 20 20">
  <g id="ic-AlarmLevel02" transform="translate(-89)">
    <circle id="椭圆_11" data-name="椭圆 11" cx="10" cy="10" r="10" transform="translate(89)" fill="#ff6c00"/>
    <path id="路径_1881" data-name="路径 1881" d="M-2.808-5.5h1.02a2.887,2.887,0,0,1,.078-.762,2.03,2.03,0,0,1,.294-.678,1.6,1.6,0,0,1,.522-.486,1.484,1.484,0,0,1,.762-.186A1.863,1.863,0,0,1,.5-7.5a1.525,1.525,0,0,1,.522.312A1.538,1.538,0,0,1,1.38-6.7a1.468,1.468,0,0,1,.132.63,2.042,2.042,0,0,1-.138.78,2.049,2.049,0,0,1-.408.624,4.2,4.2,0,0,1-.678.57q-.408.282-.948.618-.444.264-.852.564a4.018,4.018,0,0,0-.732.7,3.449,3.449,0,0,0-.534.93A4.518,4.518,0,0,0-3.048,0H2.508V-.9H-1.86a1.612,1.612,0,0,1,.306-.7,3.3,3.3,0,0,1,.564-.57,6.248,6.248,0,0,1,.726-.5q.4-.234.792-.474T1.3-3.672a3.884,3.884,0,0,0,.66-.618,2.839,2.839,0,0,0,.462-.774,2.651,2.651,0,0,0,.174-1,2.5,2.5,0,0,0-.21-1.056,2.182,2.182,0,0,0-.57-.762,2.522,2.522,0,0,0-.846-.468A3.262,3.262,0,0,0-.072-8.508a3,3,0,0,0-1.2.228,2.45,2.45,0,0,0-.882.63,2.543,2.543,0,0,0-.522.954A3.44,3.44,0,0,0-2.808-5.5Z" transform="translate(99 14)" fill="#fff"/>
  </g>
</svg>
