<svg id="icon-巡检" xmlns="http://www.w3.org/2000/svg" width="24" height="23.267" viewBox="0 0 24 23.267">
  <path id="巡检" d="M75.637,86.867a2.923,2.923,0,1,0-3.017-2.923A2.973,2.973,0,0,0,75.637,86.867Zm0-4.409a1.5,1.5,0,1,1-1.515,1.5A1.508,1.508,0,0,1,75.637,82.459Zm-2.92,8.828a1.114,1.114,0,0,0,.12.147,15.727,15.727,0,0,0,2.088,2.088l.715.567.712-.573a15.952,15.952,0,0,0,2.083-2.093,1.2,1.2,0,0,0,.123-.153c1.453-1.892,3.26-4.634,3.667-7.005a6.911,6.911,0,0,0,.08-.9,6.386,6.386,0,0,0-1.992-4.687,6.766,6.766,0,0,0-9.347,0,6.421,6.421,0,0,0-2,4.714,6.693,6.693,0,0,0,.078.873C69.483,86.8,71.522,89.737,72.716,91.287Zm2.92-12.637a4.939,4.939,0,0,1,4.981,4.928,5.115,5.115,0,0,1-.059.656c-.329,1.911-1.882,4.28-3.129,5.9a.255.255,0,0,1-.04.048,13.665,13.665,0,0,1-1.753,1.769,13.14,13.14,0,0,1-1.753-1.759.255.255,0,0,1-.04-.048c-1.245-1.609-2.8-3.986-3.126-5.889a5.114,5.114,0,0,1-.059-.656,4.951,4.951,0,0,1,4.979-4.947Zm-7.2,21.417H84.909a2.441,2.441,0,1,0,0-4.872H66.091a.808.808,0,1,1,0-1.6h2.942a.831.831,0,0,0,.584-.238.814.814,0,0,0,0-1.162.831.831,0,0,0-.584-.238H66.091a2.441,2.441,0,1,0,0,4.872h18.82a.808.808,0,1,1,0,1.6H68.441a.819.819,0,1,0,0,1.638Zm0,0" transform="translate(-63.5 -76.8)" fill="#a3a0fb"/>
</svg>
