<svg xmlns="http://www.w3.org/2000/svg" width="199" height="199" viewBox="0 0 199 199">
  <g id="logo" transform="translate(429.606 70.77)">
    <circle id="椭圆_390" data-name="椭圆 390" cx="99.5" cy="99.5" r="99.5" transform="translate(-429.606 -70.77)" fill="#fff" opacity="0"/>
    <g id="组_1" data-name="组 1" transform="translate(-398.607 -70.645)">
      <path id="路径_1" data-name="路径 1" d="M-229.932-69.806s-1.18,14.635-18.412,18.412c0,0-48.115-21.949-62.316,1.416-9.493,15.618-8.406,23.841-8.406,23.841s1.561,12.275,14.779,23.369a124.2,124.2,0,0,0,26.673,17s51.458,21.952,51.458,56.415-23.6,56.415-62.08,55.707,10.622-21.716,10.622-21.716L-256.6,92.358s10.262-28.562-16-45.321S-328.127,14.7-338.985-8.906c-11.566-29.978,12.511-59.012,43.669-60.9S-229.932-69.806-229.932-69.806Z" transform="translate(362.506 70.645)" fill="#7ab438"/>
      <path id="路径_2" data-name="路径 2" d="M-294.012,200.543a46.849,46.849,0,0,1,4.233,14.4c.5,5.243.831,10.468-.243,15.674a41.509,41.509,0,0,1-8.624,18.311c-6.374,7.752-14.7,12.517-24.152,15.143-5.592,1.554-11.495,1.274-17.31.574a66.258,66.258,0,0,1-22.354-6.414A64.9,64.9,0,0,1-384.49,240.36a64.655,64.655,0,0,1-13.955-35.945,60.594,60.594,0,0,1,10.491-38.806c5.751-8.61,13.415-15.153,22.135-20.543a2.325,2.325,0,0,1,2.194.115,106.488,106.488,0,0,0,16.193,14.158c.289.205.554.447,1.046.846a19.811,19.811,0,0,1-1.973,1.574c-7.525,4.557-13.191,10.736-16.212,19.063-5.047,13.909-2.4,26.561,7.368,37.409,12.283,13.643,32.169,16.986,48.1,10.068,6.817-2.96,12.22-7.8,14.81-15.117,1.362-3.849.94-7.741.048-11.617q-.1-.424-.193-.849Z" transform="translate(398.607 -66.629)" fill="#001976"/>
      <path id="路径_5" data-name="路径 5" d="M-279.01-17.225c-2.873-4.94-3.167-10.131-2.986-15.3.441-12.6,5.484-22.889,15.676-30.625a20.538,20.538,0,0,1,13.554-4.6c5.6.223,11.3.278,16.754,1.4a37.782,37.782,0,0,1,20.529,11.758A40.963,40.963,0,0,1-205-32.348a25.208,25.208,0,0,1-5.841,20.28A52.935,52.935,0,0,1-229.214,2.367c-6.047,2.863-12.028,5.865-18.036,8.81a2.312,2.312,0,0,1-2.646-.2c-5.625-4.043-11.313-8-16.944-12.035-2.8-2-2.755-2.032.369-3.42,8.162-3.624,16.271-7.373,24.492-10.856,4.065-1.723,8-3.546,10.562-7.274s3.569-7.769,2.128-12.345c-2.9-9.2-11.772-14.326-20.542-14.791A29.3,29.3,0,0,0-267.8-45.281,25.136,25.136,0,0,0-279.829-25.07C-280-22.6-279.333-20.072-279.01-17.225Z" transform="translate(324.35 68.808)" fill="#001976"/>
      <path id="路径_25" data-name="路径 25" d="M-180.555,472.44l-4.938.565-.037-.261,4.9-.963Z" transform="translate(262.872 -274.893)" fill="#001976"/>
    </g>
  </g>
</svg>
