<svg xmlns="http://www.w3.org/2000/svg" width="198.83" height="80.594" viewBox="0 0 198.83 80.594">
  <g id="logo" transform="translate(398.606 70.645)">
    <g id="组_1" data-name="组 1" transform="translate(-398.607 -70.645)">
      <path id="路径_1" data-name="路径 1" d="M-296.479-70.3s-.479,5.94-7.472,7.472c0,0-19.527-8.908-25.291.575-3.853,6.339-3.412,9.676-3.412,9.676s.634,4.982,6,9.484a50.407,50.407,0,0,0,10.825,6.9s20.884,8.909,20.884,22.9-9.58,22.9-25.2,22.609,4.311-8.813,4.311-8.813L-307.3-4.49s4.165-11.592-6.492-18.394-22.535-13.124-26.942-22.7c-4.694-12.166,5.077-23.95,17.723-24.716S-296.479-70.3-296.479-70.3Z" transform="translate(350.284 70.645)" fill="#7ab438"/>
      <path id="路径_2" data-name="路径 2" d="M-356.157,167.451a19.014,19.014,0,0,1,1.718,5.846,21.3,21.3,0,0,1-.1,6.361,16.847,16.847,0,0,1-3.5,7.432,18.844,18.844,0,0,1-9.8,6.146,18.122,18.122,0,0,1-7.025.233,26.891,26.891,0,0,1-9.073-2.6,26.339,26.339,0,0,1-8.94-7.254,26.24,26.24,0,0,1-5.664-14.588,24.592,24.592,0,0,1,4.258-15.749,28.5,28.5,0,0,1,8.984-8.338.943.943,0,0,1,.89.047,43.218,43.218,0,0,0,6.572,5.746c.117.083.225.181.425.344a8.038,8.038,0,0,1-.8.639,14.87,14.87,0,0,0-6.58,7.737,14.154,14.154,0,0,0,2.99,15.182,17.24,17.24,0,0,0,19.522,4.086,10.444,10.444,0,0,0,6.011-6.135,8.269,8.269,0,0,0,.019-4.715q-.04-.172-.078-.345Z" transform="translate(398.607 -113.102)" fill="#001976"/>
      <path id="路径_3" data-name="路径 3" d="M549.146,183.329c.059-.955.053-1.908.2-2.836.107-.679.907-1.1,1.876-1.126.784-.02,1.572-.037,2.354.014.6.039.771-.209.767-.76q-.023-3.423,0-6.847a21.688,21.688,0,0,1,.126-2.569c.221-1.748,1.424-2.78,2.807-3.657a7.989,7.989,0,0,1,4.433-1.108q13.142.018,26.284.017c2.871,0,5.743-.013,8.614.038a7.118,7.118,0,0,1,5.354,2.544,4.8,4.8,0,0,1,1.219,3.306c-.014,2.749.02,5.5-.01,8.246-.007.629.2.805.8.791,1.369-.032,2.739-.01,4.146-.01a28.479,28.479,0,0,1-.025,2.879c-.065.64-.871,1.071-1.733,1.075q-4.086.02-8.173.021-19.217,0-38.434,0c-3.362,0-6.723.023-10.085.033C549.54,183.379,549.42,183.356,549.146,183.329Zm24.87-9.448h.007q0,2.206,0,4.412c0,1.079.012,1.091,1.1,1.086,2.451-.01,4.9-.053,7.352-.014.732.011.909-.214.9-.911-.037-3.113-.046-6.226-.008-9.339.008-.635-.177-.8-.769-.794q-3.933.027-7.868-.006c-.522,0-.737.143-.725.712C574.039,170.645,574.016,172.263,574.016,173.881Zm-5.093-.041h-.041c0-1.618-.015-3.237.009-4.855.008-.521-.188-.677-.689-.673-2.133.019-4.267,0-6.4.017a3.894,3.894,0,0,0-1.15.217,1.782,1.782,0,0,0-1.169,1.621c0,2.795,0,5.59-.022,8.384,0,.585.172.841.8.835,2.6-.027,5.2-.037,7.8-.012.68.006.895-.244.881-.9C568.9,176.93,568.923,175.385,568.923,173.84Zm29.018,5.538c0-.553,0-.963,0-1.374,0-2.406.017-4.812-.021-7.216-.027-1.687-.661-2.4-2.191-2.431-2.159-.048-4.32-.009-6.479-.035-.526-.006-.664.2-.661.7.021,3.191.033,6.382.016,9.573,0,.611.2.806.806.8C592.2,179.364,595,179.378,597.941,179.378Z" transform="translate(-409.529 -129.809)" fill="#001976"/>
      <path id="路径_4" data-name="路径 4" d="M145.618,9.461c-2.087,0-4.1-.035-6.107.019-.7.019-.979-.159-.914-.876.057-.634.01-1.276.06-1.911a1.175,1.175,0,0,1,1.195-1.24c1.543-.045,3.087-.088,4.63-.079,1.106.007,1.106.045,1.113-1.045,0-.466.006-.932,0-1.4a1.662,1.662,0,0,0-.05-.262c-.67-.04-1.349-.05-2.021-.128A6.094,6.094,0,0,1,139.733.485,3.915,3.915,0,0,1,138.7-2.344c.017-4.2.041-8.395.035-12.592-.005-3.375,1.885-5.446,5.261-5.7a7.706,7.706,0,0,0,1.1-.069c.185-.042.462-.267.467-.418.039-1.171.022-2.345.022-3.647-.943,0-1.864-.007-2.786,0-1.178.011-2.357.019-3.534.062-.464.017-.693-.106-.655-.607.068-.877.093-1.757.176-2.631a.792.792,0,0,1,.857-.746c1.642-.045,3.284-.092,4.927-.12,1.019-.018,1.022,0,1.021-.988,0-.761.006-1.522-.02-2.282-.015-.445.1-.7.607-.689.907.02,1.818-.03,2.723.021,1.407.079,1.961.784,1.934,2.2-.038,2-.261,1.721,1.676,1.741,1.521.015,3.044-.014,4.565-.055.562-.015.823.147.753.751a9.02,9.02,0,0,0-.008,1.251c.037,1.456-.7,2-2,2.095-.952.068-1.913.007-2.871,0-.684,0-1.367,0-2.161,0,0,1.258-.014,2.451.02,3.643,0,.126.268.323.435.354.724.131,1.462.183,2.185.318a5.064,5.064,0,0,1,4.043,3.248,4.292,4.292,0,0,1,.223,1.514c.029,4.442.027,8.884.05,13.326a5.163,5.163,0,0,1-4.107,4.753c-.882.178-1.793.213-2.786.324,0,.743-.027,1.539.03,2.329.008.116.413.291.635.291,1.718,0,3.435-.025,5.153-.06,1.141-.023,1.14-.036,1.131,1.079,0,.319,0,.638,0,.957a1.858,1.858,0,0,1-2.01,2.1c-1.372.051-2.748.012-4.122.013h-.837c0,1.361,0,2.654,0,3.947,0,1.82,0,1.82-1.837,1.8-.539-.006-1.078-.02-1.618-.019a1.575,1.575,0,0,1-1.754-1.633C145.6,12.2,145.618,10.879,145.618,9.461Zm-1.693-20.448a1.741,1.741,0,0,0,.382.08c2.572.006,5.144,0,7.716.012.495,0,.475-.3.473-.633-.008-1.372-.039-2.744-.015-4.116.011-.661-.28-.935-.9-.942-1.127-.013-2.253-.035-3.38-.041-1.151-.006-2.3-.032-3.452.031-.282.015-.778.33-.785.521C143.9-14.393,143.925-12.708,143.925-10.987Zm8.564,4.056c-2.8,0-5.511-.007-8.225.019a.6.6,0,0,0-.405.418c-.026,1.371,0,2.742-.007,4.114,0,.69.341.967,1,.961,1-.009,2.009,0,3.013,0,1.225,0,2.45,0,3.674-.024.491-.011.975-.053.959-.784C152.467-3.743,152.489-5.259,152.489-6.931Z" transform="translate(-59.451 38.351)" fill="#001976"/>
      <path id="路径_5" data-name="路径 5" d="M-280.809-47.251a11.039,11.039,0,0,1-1.212-6.208,15.522,15.522,0,0,1,6.362-12.429,8.335,8.335,0,0,1,5.5-1.866,41.979,41.979,0,0,1,6.8.57,15.334,15.334,0,0,1,8.332,4.772,16.625,16.625,0,0,1,4.256,9.024,10.231,10.231,0,0,1-2.371,8.231A21.483,21.483,0,0,1-260.6-39.3c-2.454,1.162-4.882,2.38-7.32,3.576a.938.938,0,0,1-1.074-.08c-2.283-1.641-4.591-3.247-6.877-4.884-1.135-.813-1.118-.825.15-1.388,3.312-1.471,6.6-2.992,9.94-4.406a9.076,9.076,0,0,0,4.286-2.952,5.5,5.5,0,0,0,.864-5.01,9.038,9.038,0,0,0-8.337-6,11.889,11.889,0,0,0-7.291,1.81,10.2,10.2,0,0,0-4.884,8.2A18.458,18.458,0,0,0-280.809-47.251Z" transform="translate(299.211 68.186)" fill="#001976"/>
      <path id="路径_6" data-name="路径 6" d="M591.141-29.579c0-.878.018-1.707-.007-2.535-.012-.416.091-.667.553-.655,1.053.028,2.113-.015,3.156.1a1.523,1.523,0,0,1,1.535,1.77c0,1.787-.028,1.424,1.471,1.428,3.165.009,6.33-.014,9.5-.023h.991c0,1.005.051,1.935-.017,2.856-.046.618-.773,1.129-1.6,1.173-1.028.055-2.06.054-3.09.053-2.159,0-4.319.009-6.478-.044-.7-.017-.832.273-.8.87.035.7.008,1.411.008,2.281-1.418-.08-2.808-.088-4.176-.264-.668-.086-.921-.742-.969-1.4-.033-.459-.05-.919-.077-1.441-1.4,0-2.742,0-4.084,0q-9.607-.013-19.215-.024c-1.586,0-1.423-.144-1.384,1.425.051,2.083.106,1.634-1.587,1.62-.637-.005-1.275.017-1.911-.006a1.635,1.635,0,0,1-1.675-1.732c-.025-1.331-.025-1.341-1.384-1.335-3.263.014-6.527.029-9.79.07-.54.007-.77-.116-.688-.7a6.992,6.992,0,0,0-.012-1.176c-.044-1.474.572-2.157,2.035-2.179,1.939-.028,3.877-.015,5.816-.027,1.1-.007,2.209-.057,3.312-.035.494.01.653-.167.646-.631-.011-.686.026-1.373.017-2.06,0-.356.092-.568.488-.557,1.1.031,2.209.006,3.306.1a1.536,1.536,0,0,1,1.425,1.652c.017,1.562.017,1.555,1.567,1.55q11.41-.037,22.821-.069A2.313,2.313,0,0,0,591.141-29.579Z" transform="translate(-409.75 38.349)" fill="#001976"/>
      <path id="路径_7" data-name="路径 7" d="M277.679,75.99c0-.978-.057-1.884.018-2.778a1.244,1.244,0,0,1,1.3-1.174c2.079-.037,4.179-.283,6.221.318,2.131.628,5.08,2.672,4.665,5.953a16.5,16.5,0,0,0-.008,2.06q0,8.652.007,17.3a6.027,6.027,0,0,1-4.776,6.388,8.94,8.94,0,0,1-2.1.307c-1.25.05-2.5.038-3.755.016a1.455,1.455,0,0,1-1.621-1.567c-.034-.781-.007-1.564-.007-2.5.434,0,.887,0,1.339,0,1.3-.006,2.6.026,3.9-.032a1.733,1.733,0,0,0,1.9-1.946c.03-1.315.007-2.632.007-4.038a3.043,3.043,0,0,0-.561.186c-1.652.96-3.291,1.944-4.953,2.886a13.473,13.473,0,0,1-1.606.646c0-1.626-.036-3.086.031-4.541.013-.284.366-.641.654-.81,1.96-1.158,3.956-2.256,5.91-3.425a1.358,1.358,0,0,0,.539-.921c.081-.827.014-1.667.052-2.5.025-.551-.137-.794-.733-.782-1.913.04-3.828.018-5.741.061-.562.013-.827-.1-.754-.726.059-.509.009-1.03.025-1.545.039-1.3.446-1.79,1.761-1.867,1.345-.079,2.7-.058,4.047-.048,1.6.012,1.412.146,1.366-1.406-.013-.441-.018-.883-.02-1.325A1.99,1.99,0,0,0,282.665,76C281.023,75.967,279.381,75.99,277.679,75.99Z" transform="translate(-177.984 -50.949)" fill="#001976"/>
      <path id="路径_8" data-name="路径 8" d="M373.977,100.418h1.237c1.325,0,2.65.039,3.974,0a1.831,1.831,0,0,0,2.034-2.009c.044-1.292.009-2.587.009-4a3.488,3.488,0,0,0-.741.222c-1.663.986-3.307,2-4.98,2.973a7.988,7.988,0,0,1-1.421.489c0-1.592-.071-3.034.046-4.461.032-.393.558-.847.965-1.092,1.827-1.1,3.684-2.147,5.554-3.171a1.016,1.016,0,0,0,.614-1.042c-.026-.809-.044-1.62-.008-2.428.023-.512-.159-.713-.661-.709-1.742.01-3.483.006-5.225.007h-1.507a29.272,29.272,0,0,1,.342-3.157c.179-.839.993-.952,1.716-.972,1.373-.039,2.748-.023,4.121-.029.363,0,.726,0,1.27,0-.067-1.211-.05-2.383-.222-3.527a2.035,2.035,0,0,0-2.039-1.392c-1.251-.028-2.5-.009-3.754-.01h-1.384a30.221,30.221,0,0,1,.356-3.222,1.3,1.3,0,0,1,1-.688,21.112,21.112,0,0,1,6.577.321,6.053,6.053,0,0,1,4.412,5.71c0,6.6-.146,13.207.069,19.8.124,3.81-3.249,6.178-6.212,6.436-1.51.132-3.041.044-4.562.024a1.393,1.393,0,0,1-1.517-1.378,11.5,11.5,0,0,1-.06-1.176C373.969,101.478,373.977,101.015,373.977,100.418Z" transform="translate(-260.071 -51.075)" fill="#001976"/>
      <path id="路径_9" data-name="路径 9" d="M760.5,45.949h16.2a16.477,16.477,0,0,1-.253,3.026c-.1.367-.851.715-1.349.792a19.5,19.5,0,0,1-2.717.073c-.358,0-.716,0-1.31,0l3.941,8.6c-.847,0-1.572,0-2.3,0-.638,0-1.281-.062-1.913,0a1.848,1.848,0,0,1-2.016-1.242c-1.025-2.252-2.066-4.5-3.051-6.766-.176-.4-.356-.6-.779-.6-1.938,0-3.876-.006-5.814,0a.8.8,0,0,0-.8.6c-.458,1.106-1.021,2.17-1.534,3.253-.45.951-.9,1.9-1.33,2.861a.907.907,0,0,1-.957.631,18.211,18.211,0,0,1-2.2-.064,2.947,2.947,0,0,1-1.375-.695,1.15,1.15,0,0,1-.172-1.516c1.138-2.36,2.176-4.768,3.271-7.149.542-1.178,1.131-2.334,1.692-3.5a4.013,4.013,0,0,0,.451-1.077c.128-.876.6-1.094,1.417-1,.727.085,1.473,0,2.2.062a1.571,1.571,0,0,1,1.266,2.224C760.886,44.9,760.73,45.349,760.5,45.949Z" transform="translate(-581.284 -25.538)" fill="#001976"/>
      <path id="路径_10" data-name="路径 10" d="M291.914-33.731c1.724.187,3.459.3,5.168.579a6.04,6.04,0,0,1,4.43,3.431c1.228,2.339,2.338,4.741,3.45,7.139a1.629,1.629,0,0,1-1.485,2.537,6.553,6.553,0,0,1-1.971-.1,1.787,1.787,0,0,1-1.091-.741c-.841-1.546-1.564-3.155-2.373-4.719a27.99,27.99,0,0,0-1.752-3.032,1.825,1.825,0,0,0-1.234-.69,52.494,52.494,0,0,0-5.354-.086,3.022,3.022,0,0,0-2.376,1.882q-1.7,3.083-3.288,6.225a2.359,2.359,0,0,1-2.409,1.322c-.368-.008-.735-.06-1.1-.063A1.527,1.527,0,0,1,279.1-22.31c1.323-2.678,2.64-5.366,4.131-7.951a6.4,6.4,0,0,1,5.21-3.16c1.146-.107,2.3-.139,3.45-.205Z" transform="translate(-179.111 39.169)" fill="#001976"/>
      <path id="路径_11" data-name="路径 11" d="M57.478,193.141c.268-1,.5-1.939.776-2.866,1.113-3.706,2.245-7.406,3.36-11.111A2.1,2.1,0,0,1,64.4,177.52c.764.173,1.516.4,2.278.574.786.183.817.253.56,1.033-.589,1.787-1.179,3.575-1.729,5.375-.815,2.666-1.593,5.344-2.4,8.015a1.546,1.546,0,0,1-1.847,1.1C60.05,193.5,58.839,193.313,57.478,193.141Z" transform="translate(9.709 -140.883)" fill="#001976"/>
      <path id="路径_12" data-name="路径 12" d="M674.393,42.952c1.321,0,2.545-.048,3.763.017a1.558,1.558,0,0,1,1.4,1.692q-.022,6.839-.044,13.679c0,1.22,0,1.225-1.223,1.234-.76.006-1.521.023-2.279-.015-1.145-.058-1.593-.51-1.6-1.646-.016-4.266-.012-8.532-.015-12.8C674.393,44.413,674.393,43.712,674.393,42.952Z" transform="translate(-516.325 -26.203)" fill="#001976"/>
      <path id="路径_13" data-name="路径 13" d="M65.654,348.83c-3.243,2.336-6.071,2.057-8.153-1.166a5.566,5.566,0,0,1,.729-6.465c2.283-2.186,4.752-2.049,7.3-.13a5.939,5.939,0,0,1,.048-.678c.051-.254.117-.71.206-.718a3.182,3.182,0,0,1,1.347.124c.141.053.14.579.142.89q.027,4.786.023,9.571a5.148,5.148,0,0,1-.185,1.375,4.046,4.046,0,0,1-3.279,2.834c-2.315.558-4.384.182-5.945-1.8a2.869,2.869,0,0,1-.384-.619c-.172-.4-.026-.6.416-.608a2.041,2.041,0,0,1,1.625.69,3.465,3.465,0,0,0,5.058.211,2.793,2.793,0,0,0,.806-1.268A14.212,14.212,0,0,0,65.654,348.83Zm-.052-3.812a15.828,15.828,0,0,0-.33-1.648,3.2,3.2,0,0,0-3.44-2.349c-2.6.293-4.056,3.631-2.66,5.928a3.407,3.407,0,0,0,4.068,1.825C64.594,348.374,65.515,346.871,65.6,345.018Z" transform="translate(10.303 -279.161)" fill="#001976"/>
      <path id="路径_14" data-name="路径 14" d="M601.909,60.519c0,1.913-.011,3.826.009,5.738,0,.391-.059.607-.505.594-1-.029-2.01-.013-3.013-.054-1.245-.05-1.736-.514-1.752-1.782-.038-2.918-.021-5.837-.03-8.755q0-1.4-.032-2.794c-.008-.4.135-.563.564-.541.807.041,1.617.017,2.426.037,1.653.042,2.318.773,2.291,2.407-.029,1.716-.007,3.433-.007,5.15Z" transform="translate(-449.98 -34.72)" fill="#001976"/>
      <path id="路径_15" data-name="路径 15" d="M596.889,330.157c.63-.354,1.113-.672,1.632-.91a4.752,4.752,0,0,1,5.49.944c2.189,2.366,1.882,7.909-2.068,9.05a4.144,4.144,0,0,1-4.3-.887,4.247,4.247,0,0,0-.6-.39,1.759,1.759,0,0,0-.09.505c.121.617.007.993-.745.984-.841-.01-.988-.095-.993-.963-.019-3.677-.018-7.354-.045-11.031,0-.425.167-.56.541-.6.974-.1,1.343.229,1.322,1.218q-.011.514-.044,1.028C596.967,329.409,596.931,329.713,596.889,330.157Zm.08,3.868a18.521,18.521,0,0,0,.4,1.92,3.048,3.048,0,0,0,5.058,1.23,4.674,4.674,0,0,0,.314-5.751,2.954,2.954,0,0,0-4.152-.811A3.91,3.91,0,0,0,596.969,334.024Z" transform="translate(-448.772 -268.285)" fill="#001976"/>
      <path id="路径_16" data-name="路径 16" d="M489.118,330.211c0-.976.031-1.756-.009-2.532-.036-.69.345-.822.909-.839s.844.135.84.779c-.026,3.677-.013,7.353-.024,11.03,0,.719-.227.857-1.06.8-.614-.04-.743-.354-.6-.891a2.887,2.887,0,0,0,.005-.583,6.894,6.894,0,0,0-.857.465,4.653,4.653,0,0,1-7.518-3.012,6.306,6.306,0,0,1,1.108-5.095,4.6,4.6,0,0,1,5.662-1.023C488.038,329.574,488.492,329.846,489.118,330.211Zm-.062,3.981a4.109,4.109,0,0,0-.908-2.929,2.841,2.841,0,0,0-2.64-1.126,2.893,2.893,0,0,0-2.55,1.931,4.958,4.958,0,0,0-.065,3.857,2.974,2.974,0,0,0,2.2,2.063,3.057,3.057,0,0,0,3.16-1.1A3.85,3.85,0,0,0,489.056,334.192Z" transform="translate(-351.16 -268.284)" fill="#001976"/>
      <path id="路径_17" data-name="路径 17" d="M887.69,345.425c-.518.025-.975.066-1.431.066-2.256,0-4.511-.013-6.767-.013-.772,0-.869.142-.644.861a3.754,3.754,0,0,0,5.241,2.488,3.2,3.2,0,0,0,1.129-.894c.655-.763.966-.911,2.18-.72a5.03,5.03,0,0,1-.349.839,5.8,5.8,0,0,1-5.912,2.361,5.346,5.346,0,0,1-4.148-6.963,4.843,4.843,0,0,1,4.719-3.581,5.347,5.347,0,0,1,4.838,1.771A5.661,5.661,0,0,1,887.69,345.425Zm-5.485-1.181v.025c.931,0,1.863,0,2.794,0,.742,0,.876-.182.584-.877a3.35,3.35,0,0,0-3.044-2.174,3.5,3.5,0,0,0-3.688,2.222c-.216.6-.056.814.565.807C880.346,344.235,881.276,344.244,882.205,344.244Z" transform="translate(-688.861 -279.369)" fill="#001976"/>
      <path id="路径_18" data-name="路径 18" d="M259.586,349.064a5.189,5.189,0,0,0-.652.374,4.547,4.547,0,0,1-6.608-.644,6.606,6.606,0,0,1-.06-7.14,4.747,4.747,0,0,1,6.64-.759c.4.311.637.5,1.064-.039.2-.252.805-.237,1.222-.222.095,0,.242.513.243.791.009,2.7-.007,5.4-.018,8.093a1.013,1.013,0,0,1-1.511.967.837.837,0,0,1-.307-.529A4.731,4.731,0,0,1,259.586,349.064Zm-6.474-3.807c0,.226-.011.5,0,.765a3.487,3.487,0,0,0,2.9,3.154,3.273,3.273,0,0,0,3.355-2.407,5.186,5.186,0,0,0-.071-3.254,3.039,3.039,0,0,0-2.562-2.245,2.98,2.98,0,0,0-2.834,1.2A3.72,3.72,0,0,0,253.111,345.258Z" transform="translate(-155.515 -279.401)" fill="#001976"/>
      <path id="路径_19" data-name="路径 19" d="M63.693,84.826a1.454,1.454,0,0,1-1.494-.995c-.963-1.98-1.9-3.974-2.848-5.959-.67-1.4-.679-1.4.786-1.989a14.6,14.6,0,0,1,2.13-.764,1.524,1.524,0,0,1,1.838.856q1.178,2.4,2.346,4.813c.333.681.652,1.37,1.011,2.037.255.475.2.748-.354.924-.907.29-1.8.64-2.7.947A4.671,4.671,0,0,1,63.693,84.826Z" transform="translate(8.484 -53.601)" fill="#001976"/>
      <path id="路径_20" data-name="路径 20" d="M63.083-17.51a1.953,1.953,0,0,1-1.6-1.145c-1.088-2.277-2.165-4.56-3.262-6.833-.2-.419-.093-.63.322-.777.855-.3,1.7-.628,2.555-.938a1.7,1.7,0,0,1,2.359.839c.814,1.563,1.531,3.175,2.3,4.763.35.727.734,1.438,1.059,2.176.074.168.02.569-.073.605C65.529-18.356,64.3-17.939,63.083-17.51Z" transform="translate(9.162 33.749)" fill="#001976"/>
      <path id="路径_21" data-name="路径 21" d="M370.457,339.716l1.721-.088.193,1.241c1.018-.374,1.967-.788,2.954-1.067a4.5,4.5,0,0,1,3.3.3,2.869,2.869,0,0,1,1.506,2.82c.02,2.183.017,4.366.033,6.55,0,.478,0,.867-.676.842-1.074-.038-1.121-.024-1.131-.861-.025-2.086-.017-4.172-.046-6.258a1.916,1.916,0,0,0-2.458-2.121,6.985,6.985,0,0,0-2.383.824,2.48,2.48,0,0,0-1.154,2.515c.1,1.712.01,3.434,0,5.152-.008.986-.778.642-1.3.728-.551.092-.636-.2-.632-.683.023-2.92.013-5.841.02-8.761C370.4,340.51,370.433,340.17,370.457,339.716Z" transform="translate(-257.096 -279.183)" fill="#001976"/>
      <path id="路径_22" data-name="路径 22" d="M776.11,350.447c.022-.332.046-.591.054-.85s0-.511,0-.96c-.423.264-.688.411-.932.585a5.6,5.6,0,0,1-5.182.729,2.464,2.464,0,0,1-1.782-2.371c-.081-2.377-.013-4.76-.025-7.14,0-.848.619-.552,1.046-.618.47-.072.739.068.735.615-.015,2.061.022,4.123-.013,6.184-.025,1.463.392,2.023,1.848,2.2a4.162,4.162,0,0,0,3.846-1.569,2.132,2.132,0,0,0,.337-1.234c.061-1.79.12-3.584.074-5.373-.022-.83.4-.833.989-.857.611-.026.859.149.85.824-.041,2.969-.033,5.939-.026,8.909,0,.617-.274.91-.872.926C776.769,350.453,776.48,350.447,776.11,350.447Z" transform="translate(-596.338 -279.323)" fill="#001976"/>
      <path id="路径_23" data-name="路径 23" d="M181.995,340.686c.41-.273.712-.454.993-.664a3.047,3.047,0,0,1,2.281-.613.7.7,0,0,1,.472.452c.193,1.08.175,1.083-.925,1.037a2.945,2.945,0,0,0-2.88,2.765c0,1.84.011,3.681.009,5.521,0,.774-.121.82-1.163.849-.692.019-.582-.41-.582-.829,0-2.945-.014-5.89-.015-8.836a.979.979,0,0,1,1.469-.933c.116.061.183.264.222.414A8.354,8.354,0,0,1,181.995,340.686Z" transform="translate(-94.92 -278.912)" fill="#001976"/>
      <path id="路径_24" data-name="路径 24" d="M709.2,333.909c0-1.841-.014-3.682.016-5.523,0-.267.184-.729.345-.759a4.84,4.84,0,0,1,1.435.048c.058.007.116.3.116.455q-.007,5.412-.029,10.825a1.083,1.083,0,0,1-1.621,1.069c-.144-.058-.25-.387-.252-.592C709.194,337.591,709.2,335.75,709.2,333.909Z" transform="translate(-546.005 -268.924)" fill="#001976"/>
      <path id="路径_25" data-name="路径 25" d="M-183.511,472.048l-2,.229-.015-.106,1.988-.391Z" transform="translate(216.919 -391.874)" fill="#001976"/>
    </g>
  </g>
</svg>
